<svg width="31" height="30" viewBox="0 0 31 30" fill="none" xmlns="http://www.w3.org/2000/svg">
<path d="M15.5075 9.88813L8.22083 17.1748C7.49764 17.898 6.32419 17.895 5.60466 17.1682L0.963785 12.4801C-0.313199 11.1902 -0.322365 9.11529 0.943171 7.81409L7.88911 0.672414C8.30721 0.242525 8.8814 0 9.48109 0H29.2004V3.80472L24.2109 8.7942C23.8134 9.19174 23.2742 9.41508 22.712 9.41508H16.6496C16.2212 9.41508 15.8104 9.58524 15.5075 9.88813Z" fill="#0641FC"/>
<path d="M14.8506 20.1198L22.1373 12.8331C22.8605 12.1099 24.0339 12.1129 24.7535 12.8397L29.3944 17.5278C30.6713 18.8177 30.6805 20.8926 29.415 22.1938L22.469 29.3355C22.0509 29.7654 21.4767 30.0079 20.8771 30.0079H1.15775V26.2032L6.14724 21.2137C6.54478 20.8162 7.08396 20.5928 7.64617 20.5928H13.7086C14.1369 20.5928 14.5477 20.4227 14.8506 20.1198Z" fill="#0641FC"/>
</svg>
