<svg width="32" height="32" viewBox="0 0 32 32" fill="none" xmlns="http://www.w3.org/2000/svg">
<path fill-rule="evenodd" clip-rule="evenodd" d="M16 29.3333C23.364 29.3333 29.3333 23.364 29.3333 16C29.3333 8.63599 23.364 2.66666 16 2.66666C8.636 2.66666 2.66667 8.63599 2.66667 16C2.66667 23.364 8.636 29.3333 16 29.3333ZM17 12C17 11.7348 16.8946 11.4804 16.7071 11.2929C16.5196 11.1053 16.2652 11 16 11C15.7348 11 15.4804 11.1053 15.2929 11.2929C15.1054 11.4804 15 11.7348 15 12V15H12C11.7348 15 11.4804 15.1053 11.2929 15.2929C11.1054 15.4804 11 15.7348 11 16C11 16.2652 11.1054 16.5196 11.2929 16.7071C11.4804 16.8946 11.7348 17 12 17H15V20C15 20.2652 15.1054 20.5196 15.2929 20.7071C15.4804 20.8946 15.7348 21 16 21C16.2652 21 16.5196 20.8946 16.7071 20.7071C16.8946 20.5196 17 20.2652 17 20V17H20C20.2652 17 20.5196 16.8946 20.7071 16.7071C20.8946 16.5196 21 16.2652 21 16C21 15.7348 20.8946 15.4804 20.7071 15.2929C20.5196 15.1053 20.2652 15 20 15H17V12Z" fill="white"/>
</svg>
