<svg width="17" height="14" viewBox="0 0 17 14" fill="none" xmlns="http://www.w3.org/2000/svg">
<path d="M15.75 6C15.7425 3.6645 15.669 2.42625 14.871 1.629C13.9927 0.75 12.5782 0.75 9.75 0.75H6.75C3.92175 0.75 2.50725 0.75 1.629 1.629C0.75075 2.508 0.75 3.92175 0.75 6.75C0.75 9.57825 0.75 10.9927 1.629 11.871C2.508 12.7492 3.92175 12.75 6.75 12.75H7.875" stroke="#0641FC" stroke-width="1.5" stroke-linecap="round"/>
<path d="M10.875 8.25V12.75M10.875 12.75L12.375 11.25M10.875 12.75L9.375 11.25M14.25 12.75V8.25M14.25 8.25L15.75 9.75M14.25 8.25L12.75 9.75" stroke="#0641FC" stroke-width="1.5" stroke-linecap="round" stroke-linejoin="round"/>
<path d="M6.75 9.75H3.75M0.75 5.25H15.75" stroke="#0641FC" stroke-width="1.5" stroke-linecap="round"/>
</svg>
